Coordinates
version=1
nRows=19
nColumns=34
inDegrees=yes

Units are S.I. units (second, meters, Newtons, ...)
If the header above contains a line with 'inDegrees', this indicates whether rotational values are in degrees (yes) or radians (no).

endheader
time	pelvis_tilt	pelvis_list	pelvis_rotation	pelvis_tx	pelvis_ty	pelvis_tz	hip_flexion_r	hip_adduction_r	hip_rotation_r	knee_angle_r	ankle_angle_r	subtalar_angle_r	mtp_angle_r	hip_flexion_l	hip_adduction_l	hip_rotation_l	knee_angle_l	ankle_angle_l	subtalar_angle_l	mtp_angle_l	lumbar_extension	lumbar_bending	lumbar_rotation	arm_flex_r	arm_add_r	arm_rot_r	elbow_flex_r	pro_sup_r	arm_flex_l	arm_add_l	arm_rot_l	elbow_flex_l	pro_sup_l
      0.83333330	      6.41343761	     -0.81237233	    -21.52476729	      0.24264241	      0.98781998	      0.10365539	      5.83317535	     -6.87520959	    -27.10264498	     14.52520749	     15.14486154	      5.89862491	      0.00000000	      9.84372479	     -8.01906584	    -24.69944768	     12.79518010	     14.08471520	      6.25389648	      0.00000000	    -12.03997546	      1.32061608	      2.44710288	     17.09430652	    -23.87793289	     37.84627166	     62.99559844	    112.78515429	     14.92969324	    -21.35225000	     32.91835286	     64.59779270	    114.34762835
      0.85000000	      6.34467941	     -0.82083389	    -21.41664772	      0.24760114	      0.99101098	      0.10530215	      4.15231413	     -6.00665687	    -26.61550658	     11.40175451	     13.79634299	      5.60929561	      0.00000000	      8.52647477	     -7.41511577	    -23.99272164	     10.49574665	     13.06943204	      5.89657149	      0.00000000	    -11.38955781	      1.38187580	      2.31504088	     15.64452149	    -23.25032275	     37.36766591	     59.23166603	    113.31456823	     13.43147852	    -20.92802368	     32.69120768	     60.93237036	    114.73734439
      0.86666670	      6.12769947	     -0.75323071	    -21.29105916	      0.25203619	      0.99328261	      0.10679331	      2.86761163	     -5.18835896	    -25.40799550	      8.61739005	     12.32325712	      4.29599377	      0.00000000	      7.58201914	     -6.86789804	    -22.92714038	      8.46968446	     11.93391673	      4.96147042	      0.00000000	    -10.57132085	      1.44041707	      2.11680211	     14.48618721	    -22.53082883	     36.91522352	     55.20794576	    114.44602006	     12.09200699	    -20.41368020	     32.43466568	     56.98071419	    115.54809327
      0.88333330	      5.73538361	     -0.49677807	    -21.28404015	      0.25589401	      0.99468687	      0.10813209	      2.34306699	     -4.86804882	    -25.23195706	      6.90293513	     11.56547186	      4.25556065	      0.00000000	      7.22820408	     -6.44413435	    -22.86368469	      7.19800721	     11.39542278	      4.96239259	      0.00000000	     -9.53076327	      1.35273380	      1.93328322	     13.60802808	    -21.71713027	     36.46055406	     50.80108901	    114.68817993	     10.97034729	    -19.66102359	     32.03973681	     52.29224531	    115.69368207
      0.90000000	      5.52373133	     -0.29175605	    -21.14996754	      0.25956072	      0.99601855	      0.10923101	      1.67980210	     -4.61563431	    -24.88113888	      5.38650612	     10.92552330	      4.23040800	      0.00000000	      6.81672021	     -6.04989226	    -22.52349637	      6.18038711	     10.97315499	      5.02499298	      0.00000000	     -8.74776923	      1.20643892	      1.69547337	     12.74907345	    -20.85603393	     35.73075586	     46.30519377	    114.80307044	      9.99553177	    -18.75687343	     31.28937583	     47.36868487	    115.72759955
      0.91666670	      5.47040522	     -0.13238806	    -21.03551027	      0.26289549	      0.99711469	      0.11019209	      1.03628659	     -4.46349099	    -24.70808729	      4.23848045	     10.56482841	      3.85162686	      0.00000000	      6.41227315	     -5.70923992	    -22.21168736	      5.51185926	     10.76723915	      4.89727826	      0.00000000	     -8.28797672	      1.07353034	      1.37035888	     12.20353456	    -19.89954269	     34.57202160	     41.76207075	    114.84855492	      9.22912231	    -17.71498257	     30.16906006	     42.29205825	    115.69885765
      0.93333330	      5.51896591	     -0.12940785	    -20.66068292	      0.26586804	      0.99801842	      0.11121544	      0.24782116	     -4.13506423	    -23.40217341	      3.13609636	      9.31514258	      1.54749139	      0.00000000	      6.00167584	     -5.47904490	    -20.87307897	      4.96731111	     10.15627892	      3.36451074	      0.00000000	     -8.13675889	      0.96921892	      0.83055729	     11.43261504	    -18.60732625	     31.46039911	     37.57183975	    115.86355849	      8.33003493	    -16.61347278	     27.40153786	     37.94620287	    116.31804214
      0.95000000	      5.47314909	      0.04167133	    -20.55779737	      0.26934999	      0.99843570	      0.11218196	     -0.17567717	     -4.14508412	    -23.20033923	      2.54378246	      9.32059692	      1.40589354	      0.00000000	      5.71932435	     -5.21395086	    -20.60538590	      4.61850970	     10.14560156	      3.41515563	      0.00000000	     -7.73522350	      0.77826572	      0.60537257	     10.91520997	    -17.96275100	     30.43864841	     33.73654383	    115.94589466	      7.82434601	    -15.78735043	     26.38597448	     33.57288182	    116.29626613
      0.96666670	      5.53361817	      0.11642396	    -20.43850873	      0.27257030	      0.99878340	      0.11324221	     -0.64758445	     -4.14115903	    -23.07074640	      2.12740574	      9.23385275	      1.17113654	      0.00000000	      5.41705683	     -5.05720771	    -20.39658004	      4.48367964	     10.23040337	      3.32947470	      0.00000000	     -7.59510315	      0.62437509	      0.30573788	     10.41629326	    -17.33082371	     28.86210426	     30.26510203	    115.94315837	      7.31037024	    -15.10091770	     24.91546568	     29.74757556	    116.17652166
      0.98333330	      5.69650257	      0.09934589	    -20.27448626	      0.27560787	      0.99905367	      0.11414884	     -1.26384498	     -4.05395155	    -22.61674810	      1.68918335	      8.84716859	      0.28286182	      0.00000000	      4.97379452	     -4.93781867	    -20.01786616	      4.29724465	     10.26721125	      2.82948586	      0.00000000	     -7.73405046	      0.52663566	     -0.05085497	      9.47529632	    -16.52253752	     24.38602522	     28.03958088	    116.43146172	      6.39787098	    -14.37985933	     21.01254803	     27.28338852	    116.10705854
      1.00000000	      5.75254582	      0.22141102	    -20.19102835	      0.27890865	      0.99890408	      0.11482048	     -1.72276518	     -4.12665794	    -22.43529578	      1.24670267	      9.06414458	      0.24606506	      0.00000000	      4.63843972	     -4.70173629	    -19.77013258	      4.06185208	     10.52722612	      2.94099831	      0.00000000	     -7.60628697	      0.35583756	     -0.27214910	      8.93368378	    -16.34907998	     23.45142076	     25.73499558	    116.53588354	      5.91033204	    -14.11428464	     20.19469469	     24.71971237	    116.07014422
      1.01666670	      5.85881242	      0.22405423	    -20.15357514	      0.28237860	      0.99872116	      0.11532245	     -2.16148660	     -4.15370685	    -22.53137714	      1.06209424	      9.35596583	      0.01153970	      0.00000000	      4.21117505	     -4.55708515	    -19.92697879	      3.85829545	     10.94671514	      2.72901062	      0.00000000	     -7.59164568	      0.39035868	     -0.52597927	      8.24242667	    -16.41783709	     22.71793258	     24.27538962	    116.52606257	      5.14032586	    -14.10255384	     19.62299926	     23.13767559	    115.99268014
      1.03333330	      6.41370835	      0.14492212	    -20.13134315	      0.28528822	      0.99950098	      0.11566673	     -3.16932474	     -4.25080929	    -22.14600466	      0.65334057	      9.02759045	     -0.10620331	      0.00000000	      3.21155934	     -4.30063944	    -19.67540900	      3.46168321	     10.89627156	      2.91366518	      0.00000000	     -8.19723550	      0.31541425	     -0.69983213	      7.59896666	    -15.90034991	     18.32410065	     22.77215614	    116.75630696	      4.60291377	    -13.63748523	     16.45886595	     21.45593245	    115.57788935
      1.05000000	      6.42240605	      0.21627257	    -20.11165915	      0.28826464	      0.99923230	      0.11558685	     -3.40511228	     -4.35918920	    -22.14523793	      0.52277908	      9.34369991	     -0.24188027	      0.00000000	      2.95019480	     -4.10212092	    -19.68559978	      3.26141296	     11.29404442	      2.82754360	      0.00000000	     -8.02761811	      0.34331532	     -0.90274873	      7.00885497	    -16.19663416	     17.99295130	     21.80106039	    116.80275417	      3.95050629	    -13.69921890	     16.29317527	     20.43556408	    115.57145750
      1.06666670	      6.54131436	      0.30679430	    -20.09125734	      0.29115040	      0.99935368	      0.11564308	     -3.74557167	     -4.54196090	    -22.08174467	      0.39876650	      9.49025463	     -0.28712460	      0.00000000	      2.52341189	     -3.82483824	    -19.56203385	      2.94741779	     11.56921897	      2.90378633	      0.00000000	     -7.96977671	      0.32837176	     -1.12990006	      6.64687544	    -16.32384556	     17.39568405	     20.55187942	    116.81450600	      3.50842031	    -13.69985304	     16.00703858	     19.16608202	    115.53578422
      1.08333330	      6.67899865	      0.37774265	    -20.07929572	      0.29400501	      0.99963784	      0.11578012	     -4.09283720	     -4.69430994	    -22.06956141	      0.31406133	      9.57026815	     -0.35772995	      0.00000000	      2.06917785	     -3.58107958	    -19.50479504	      2.63394780	     11.64734357	      2.97454086	      0.00000000	     -7.98608353	      0.28634718	     -1.31612441	      6.26371237	    -16.48730681	     16.78174288	     19.59445308	    116.81064213	      3.12290210	    -13.74641990	     15.74615043	     18.23135806	    115.49450389
      1.10000000	      6.78706933	      0.46636693	    -20.08301400	      0.29682729	      0.99988002	      0.11596290	     -4.41542064	     -4.86281288	    -22.01402132	      0.17915236	      9.63235725	     -0.39979186	      0.00000000	      1.62318158	     -3.30220626	    -19.41410446	      2.25325695	     11.68681865	      3.05323749	      0.00000000	     -7.95914239	      0.23681227	     -1.46722631	      5.92976626	    -16.68893921	     16.14724735	     18.86767172	    116.79626539	      2.79826437	    -13.87942154	     15.50816103	     17.50173288	    115.45011955
      1.11666670	      6.80247676	      0.49882291	    -20.08717974	      0.29907755	      1.00003203	      0.11597452	     -4.54782099	     -4.94332193	    -21.97319436	      0.21077805	      9.61196119	     -0.40042464	      0.00000000	      1.44589478	     -3.20324515	    -19.40970007	      2.20176439	     11.65003084	      3.05459282	      0.00000000	     -7.95729417	      0.28058689	     -1.57442814	      5.57877727	    -17.05889533	     15.91934229	     18.51796382	    116.78116937	      2.51274058	    -14.08511031	     15.42740892	     17.21717494	    115.43097439
      1.13333330	      6.77689652	      0.61458719	    -20.16817401	      0.30154089	      1.00013890	      0.11641395	     -4.71944278	     -5.04923410	    -21.96154319	      0.00000000	      9.63732864	     -0.42516931	      0.00000000	      1.06761950	     -2.93154917	    -19.35301604	      1.64957762	     11.68618089	      3.08035867	      0.00000000	     -7.79739084	      0.22460365	     -1.69296627	      5.37177945	    -17.31219369	     15.41043393	     17.99758145	    116.74686074	      2.32572914	    -14.30782072	     15.26314538	     16.70781258	    115.38595752
